<svg id="analysis" xmlns="http://www.w3.org/2000/svg" width="103.154" height="80.5" viewBox="0 0 103.154 80.5">
  <path id="Caminho_11" data-name="Caminho 11" d="M22.683,78.951a1.188,1.188,0,0,0,1.188-1.188l.174-53.721H100.98a1.188,1.188,0,0,0,0-2.377H22.857a1.188,1.188,0,0,0-1.188,1.188l-.174,54.907a1.188,1.188,0,0,0,1.188,1.191Z" transform="translate(-10.341 -21.664)" fill="#0058ff"/>
  <path id="Caminho_12" data-name="Caminho 12" d="M21.058,102.326a1.188,1.188,0,0,0,2.377,0l.018-24.634L32.827,63.71A2.947,2.947,0,0,1,38,64.227l7.045,17.084a5.247,5.247,0,0,0,4.9,3.294c.115,0,.23,0,.346-.011a5.256,5.256,0,0,0,4.8-3.9l6.159-22.448a1.188,1.188,0,1,0-2.291-.629L52.8,80.062a2.947,2.947,0,0,1-5.564.343L40.193,63.321a5.324,5.324,0,0,0-9.34-.935L20.724,77.495A2.947,2.947,0,0,1,18.278,78.8h-7.34a1.188,1.188,0,0,0,0,2.377h7.34a5.306,5.306,0,0,0,2.8-.806Z" transform="translate(-9.75 -23.391)" fill="#0058ff"/>
  <path id="Caminho_13" data-name="Caminho 13" d="M100.976,61.289a1.188,1.188,0,0,0-1.188,1.188v39.853H22.852a1.188,1.188,0,0,0,0,2.377h78.123a1.188,1.188,0,0,0,1.188-1.188V62.478A1.188,1.188,0,0,0,100.976,61.289Z" transform="translate(-10.337 -24.207)" fill="#0058ff"/>
  <path id="Caminho_14" data-name="Caminho 14" d="M61.283,58.646a1.189,1.189,0,0,0,2.293.627L66.29,49.236A1.188,1.188,0,1,0,64,48.608Z" transform="translate(-12.388 -23.243)" fill="#0058ff"/>
  <path id="Caminho_15" data-name="Caminho 15" d="M114.39,62.107h-8.217a2.938,2.938,0,0,1-1.92-.74l.044-37.857a1.188,1.188,0,1,0-2.377,0l-.044,34.076-2.654-4.634a5.324,5.324,0,0,0-9.558.666l-4.5,11.2a2.947,2.947,0,0,1-5.55-.238L74.3,47.184a5.213,5.213,0,0,0-5.083-3.768h-.086a5.216,5.216,0,0,0-5.056,3.912,1.188,1.188,0,1,0,2.291.629,2.947,2.947,0,0,1,5.658-.081l5.312,17.4A5.263,5.263,0,0,0,82.2,69.031c.08,0,.16.006.239.006A5.259,5.259,0,0,0,87.369,65.7l4.5-11.2a2.947,2.947,0,0,1,5.289-.367l4.4,7.67a5.285,5.285,0,0,0,.666.9l.006.006a5.329,5.329,0,0,0,3.947,1.77h8.216a1.188,1.188,0,0,0,0-2.377Z" transform="translate(-12.424 -22.03)" fill="#0058ff"/>
</svg>
