<svg id="centralized" xmlns="http://www.w3.org/2000/svg" width="80.999" height="81" viewBox="0 0 80.999 81">
  <path id="Caminho_16" data-name="Caminho 16" d="M42.248,235.021l-1.554,1.555a1,1,0,1,0,1.42,1.42l3.268-3.269a1,1,0,0,0,0-1.42l-3.269-3.269a1,1,0,1,0-1.42,1.42l1.554,1.554H22.711a4.418,4.418,0,1,0,0,2.008ZM18.41,236.426a2.41,2.41,0,1,1,2.408-2.409A2.41,2.41,0,0,1,18.41,236.426Z" transform="translate(-13.991 -193.518)" fill="#0058ff"/>
  <path id="Caminho_17" data-name="Caminho 17" d="M335.94,229.6a4.424,4.424,0,0,0-4.3,3.414H312.1l1.554-1.555a1,1,0,1,0-1.42-1.42l-3.268,3.269a1,1,0,0,0,0,1.42L312.237,238a1,1,0,1,0,1.42-1.42l-1.554-1.554H331.64a4.417,4.417,0,1,0,4.3-5.422Zm0,6.827a2.41,2.41,0,1,1,2.41-2.408,2.41,2.41,0,0,1-2.41,2.408Z" transform="translate(-259.359 -193.519)" fill="#0058ff"/>
  <path id="Caminho_18" data-name="Caminho 18" d="M234,14a4.417,4.417,0,0,0-1,8.719V42.256L231.446,40.7a1,1,0,1,0-1.42,1.42l3.269,3.268a1,1,0,0,0,1.42,0l3.269-3.269a1,1,0,1,0-1.42-1.42l-1.554,1.555V22.719A4.417,4.417,0,0,0,234,14Zm0,6.826a2.41,2.41,0,1,1,2.41-2.408A2.41,2.41,0,0,1,234,20.826Z" transform="translate(-193.504 -14)" fill="#0058ff"/>
  <path id="Caminho_19" data-name="Caminho 19" d="M235.021,331.64V312.1l1.555,1.555a1,1,0,1,0,1.42-1.42l-3.269-3.268a1,1,0,0,0-1.42,0l-3.269,3.269a1,1,0,1,0,1.42,1.42l1.555-1.555V331.64a4.418,4.418,0,1,0,2.008,0Zm-1,6.71a2.41,2.41,0,1,1,2.41-2.41A2.41,2.41,0,0,1,234.017,338.35Z" transform="translate(-193.516 -259.36)" fill="#0058ff"/>
  <path id="Caminho_20" data-name="Caminho 20" d="M292.086,101.363h4.623a1,1,0,1,0,0-2.008h-2.2L308.325,85.5a4.415,4.415,0,1,0-1.461-1.46L293.008,97.852v-2.2a1,1,0,1,0-2.008,0v4.622A1.149,1.149,0,0,0,292.086,101.363ZM308.953,80a2.4,2.4,0,1,1-.708,1.7A2.41,2.41,0,0,1,308.953,80Z" transform="translate(-244.642 -66.721)" fill="#0058ff"/>
  <path id="Caminho_21" data-name="Caminho 21" d="M100.288,291H95.666a1,1,0,0,0,0,2.008h2.2L84.049,306.865a4.415,4.415,0,1,0,1.461,1.46L99.366,294.51v2.2a1,1,0,0,0,2.008,0v-4.622A1.149,1.149,0,0,0,100.288,291ZM83.422,312.36a2.408,2.408,0,1,1,0-3.407A2.408,2.408,0,0,1,83.422,312.36Z" transform="translate(-66.731 -244.644)" fill="#0058ff"/>
  <path id="Caminho_22" data-name="Caminho 22" d="M308.325,306.865,294.51,293.008h2.2a1,1,0,1,0,0-2.008h-4.623A1.149,1.149,0,0,0,291,292.086v4.622a1,1,0,1,0,2.008,0v-2.2l13.857,13.8a4.418,4.418,0,0,0,.647,5.445h.01a4.531,4.531,0,0,0,3.129,1.3,4.426,4.426,0,1,0-2.326-8.2Zm4.035,5.5a2.412,2.412,0,0,1-3.407,0h0a2.41,2.41,0,1,1,3.407,0Z" transform="translate(-244.642 -244.644)" fill="#0058ff"/>
  <path id="Caminho_23" data-name="Caminho 23" d="M100.424,94.686a1,1,0,0,0-1,1v2.2l-13.857-13.8a4.418,4.418,0,0,0-.647-5.445h-.01a4.4,4.4,0,1,0-.8,6.9L97.918,99.39h-2.2a1,1,0,0,0,0,2.008h4.623a1.149,1.149,0,0,0,1.086-1.086V95.69A1,1,0,0,0,100.424,94.686ZM80.068,83.446a2.41,2.41,0,1,1,3.407,0A2.41,2.41,0,0,1,80.068,83.446Z" transform="translate(-66.785 -66.757)" fill="#0058ff"/>
</svg>
